# Blender v2.80 (sub 75) OBJ File: 'bomb.blend'
# www.blender.org
mtllib bomb_line.mtl
o BezierCurve_BezierCurve.001
v 0.026980 2.093273 -0.005505
v 0.009636 2.083519 0.000220
v -0.000441 2.071080 0.013351
v -0.000551 2.059288 0.030370
v 0.009335 2.051303 0.046717
v 0.026569 2.049264 0.058012
v 0.046532 2.053719 0.061227
v 0.063876 2.063473 0.055502
v 0.073953 2.075912 0.042371
v 0.074063 2.087704 0.025352
v 0.064177 2.095689 0.009005
v 0.046944 2.097728 -0.002289
v -0.057135 2.216873 0.094439
v -0.071126 2.201610 0.094425
v -0.079118 2.184603 0.103121
v -0.078971 2.170410 0.118196
v -0.070722 2.162834 0.135611
v -0.056584 2.163905 0.150700
v -0.040343 2.173335 0.159419
v -0.026352 2.188599 0.159433
v -0.018360 2.205605 0.150737
v -0.018508 2.219798 0.135662
v -0.026756 2.227374 0.118247
v -0.040895 2.226304 0.103158
v -0.211347 2.310072 0.202106
v -0.221561 2.292514 0.198092
v -0.226833 2.273215 0.203428
v -0.225752 2.257347 0.216685
v -0.218606 2.249160 0.234310
v -0.207311 2.250850 0.251581
v -0.194893 2.261962 0.263870
v -0.184679 2.279520 0.267884
v -0.179407 2.298819 0.262548
v -0.180488 2.314687 0.249291
v -0.187633 2.322874 0.231666
v -0.198929 2.321184 0.214395
v -0.421067 2.377627 0.317690
v -0.428851 2.359555 0.311245
v -0.432234 2.339364 0.314341
v -0.430311 2.322464 0.326148
v -0.423595 2.313383 0.343502
v -0.413887 2.314555 0.361753
v -0.403788 2.325665 0.376011
v -0.396004 2.343737 0.382456
v -0.392621 2.363929 0.379359
v -0.394545 2.380829 0.367553
v -0.401260 2.389909 0.350199
v -0.410968 2.388737 0.331947
v -0.671935 2.424899 0.441783
v -0.678436 2.406931 0.433808
v -0.680721 2.386410 0.435350
v -0.678178 2.368834 0.445997
v -0.671489 2.358913 0.462895
v -0.662446 2.359306 0.481517
v -0.653472 2.369907 0.496874
v -0.646972 2.387875 0.504849
v -0.644687 2.408396 0.503307
v -0.647229 2.425972 0.492660
v -0.653918 2.435892 0.475762
v -0.662961 2.435500 0.457140
v -0.949872 2.457351 0.575131
v -0.955862 2.439660 0.566193
v -0.957599 2.419033 0.566645
v -0.954617 2.400995 0.576364
v -0.947716 2.390381 0.592748
v -0.938744 2.390034 0.611406
v -0.930106 2.400047 0.627338
v -0.924115 2.417737 0.636275
v -0.922379 2.438365 0.635824
v -0.925360 2.456403 0.626104
v -0.932262 2.467017 0.609720
v -0.941234 2.467364 0.591063
v -1.240904 2.480445 0.718523
v -1.246947 2.463045 0.709067
v -1.248536 2.442402 0.708805
v -1.245245 2.424048 0.717807
v -1.237957 2.412902 0.733661
v -1.228623 2.411949 0.752119
v -1.219746 2.421445 0.768235
v -1.213703 2.438846 0.777691
v -1.212114 2.459489 0.777953
v -1.215405 2.477843 0.768951
v -1.222693 2.488989 0.753097
v -1.232027 2.489942 0.734639
v -1.531100 2.499649 0.872794
v -1.537680 2.482497 0.863243
v -1.539457 2.461877 0.862623
v -1.535954 2.443314 0.871100
v -1.528110 2.431782 0.886404
v -1.518026 2.430372 0.904434
v -1.508406 2.439460 0.920357
v -1.501825 2.456611 0.929909
v -1.500049 2.477231 0.930529
v -1.503552 2.495794 0.922051
v -1.511396 2.507326 0.906747
v -1.521479 2.508737 0.888718
v -1.806551 2.520434 1.038829
v -1.814169 2.503499 1.029670
v -1.816467 2.482930 1.029076
v -1.812829 2.464238 1.037206
v -1.804230 2.452433 1.051883
v -1.792974 2.450676 1.069172
v -1.782077 2.459439 1.084443
v -1.774458 2.476374 1.093602
v -1.772160 2.496943 1.094195
v -1.775798 2.515634 1.086065
v -1.784397 2.527440 1.071389
v -1.795653 2.529197 1.054099
v -2.053359 2.548296 1.217583
v -2.062590 2.531621 1.209494
v -2.065781 2.511163 1.209410
v -2.062078 2.492404 1.217354
v -2.052472 2.480371 1.231198
v -2.039537 2.478287 1.247232
v -2.026740 2.486712 1.261159
v -2.017509 2.503387 1.269248
v -2.014317 2.523845 1.269332
v -2.018021 2.542604 1.261388
v -2.027627 2.554637 1.247544
v -2.040561 2.556720 1.231511
v -2.257591 2.588769 1.410104
v -2.269043 2.572580 1.404148
v -2.273517 2.552395 1.405278
v -2.269814 2.533623 1.413191
v -2.258926 2.521294 1.425767
v -2.243771 2.518711 1.439637
v -2.228409 2.526567 1.451084
v -2.216957 2.542756 1.457040
v -2.212483 2.562941 1.455910
v -2.216187 2.581713 1.447997
v -2.227074 2.594042 1.435421
v -2.242229 2.596625 1.421551
v -2.405146 2.647450 1.617494
v -2.419105 2.632319 1.615269
v -2.425053 2.612773 1.618630
v -2.421396 2.594049 1.626677
v -2.409115 2.581164 1.637253
v -2.391499 2.577570 1.647524
v -2.373270 2.584230 1.654739
v -2.359311 2.599360 1.656964
v -2.353364 2.618906 1.653602
v -2.357020 2.637631 1.645556
v -2.369302 2.650516 1.634980
v -2.386917 2.654110 1.624709
v -2.481592 2.729906 1.840609
v -2.497240 2.716697 1.843676
v -2.504172 2.698326 1.850246
v -2.500531 2.679716 1.858559
v -2.487294 2.665852 1.866388
v -2.468006 2.660450 1.871634
v -2.447836 2.664957 1.872892
v -2.432189 2.678166 1.869825
v -2.425257 2.696537 1.863255
v -2.428897 2.715147 1.854942
v -2.442134 2.729011 1.847113
v -2.461422 2.734413 1.841867
vn -0.1889 0.5367 -0.8223
vn -0.1907 0.5644 -0.8032
vn 0.2119 0.7873 -0.5790
vn 0.2668 0.7137 -0.6476
vn -0.6017 0.2048 -0.7720
vn -0.5472 0.1869 -0.8159
vn -0.8439 -0.1866 -0.5029
vn -0.7568 -0.2477 -0.6049
vn -0.8473 -0.5225 -0.0951
vn -0.7553 -0.6166 -0.2221
vn -0.6152 -0.7118 0.3388
vn -0.5402 -0.8109 0.2250
vn -0.2085 -0.7023 0.6806
vn -0.1743 -0.7757 0.6066
vn 0.2582 -0.4947 0.8298
vn 0.2360 -0.5279 0.8159
vn 0.6464 -0.1553 0.7471
vn 0.5780 -0.1432 0.8034
vn 0.8550 0.2133 0.4727
vn 0.7656 0.2737 0.5821
vn 0.8492 0.5202 0.0899
vn 0.7567 0.6177 0.2140
vn 0.6397 0.7019 -0.3131
vn 0.5559 0.8048 -0.2080
vn -0.1986 0.6134 -0.7644
vn 0.1110 0.8834 -0.4552
vn -0.4571 0.1767 -0.8716
vn -0.5925 -0.3110 -0.7430
vn -0.5657 -0.7154 -0.4100
vn -0.3830 -0.9230 0.0369
vn -0.0952 -0.8758 0.4732
vn 0.2177 -0.5895 0.7779
vn 0.4701 -0.1469 0.8703
vn 0.5962 0.3305 0.7316
vn 0.5662 0.7189 0.4031
vn 0.3896 0.9205 -0.0291
vn -0.2136 0.6552 -0.7246
vn 0.0383 0.9289 -0.3684
vn -0.4095 0.2053 -0.8889
vn -0.4956 -0.3017 -0.8144
vn -0.4475 -0.7284 -0.5188
vn -0.2775 -0.9572 -0.0814
vn -0.0320 -0.9252 0.3780
vn 0.2216 -0.6423 0.7337
vn 0.4147 -0.1876 0.8904
vn 0.4965 0.3150 0.8088
vn 0.4467 0.7324 0.5137
vn 0.2794 0.9565 0.0840
vn -0.2302 0.6892 -0.6869
vn -0.0063 0.9526 -0.3041
vn -0.3931 0.2414 -0.8872
vn -0.4509 -0.2721 -0.8501
vn -0.3873 -0.7135 -0.5839
vn -0.2190 -0.9626 -0.1596
vn 0.0085 -0.9514 0.3079
vn 0.2336 -0.6832 0.6919
vn 0.3953 -0.2316 0.8889
vn 0.4509 0.2809 0.8472
vn 0.3862 0.7173 0.5799
vn 0.2189 0.9627 0.1589
vn -0.2474 0.7158 -0.6530
vn -0.0320 0.9661 -0.2561
vn -0.3970 0.2744 -0.8759
vn -0.4405 -0.2408 -0.8648
vn -0.3660 -0.6921 -0.6220
vn -0.1932 -0.9580 -0.2118
vn 0.0318 -0.9662 0.2557
vn 0.2483 -0.7141 0.6545
vn 0.3978 -0.2699 0.8768
vn 0.4403 0.2463 0.8634
vn 0.3648 0.6958 0.6186
vn 0.1919 0.9589 0.2089
vn -0.2656 0.7353 -0.6235
vn -0.0443 0.9740 -0.2222
vn -0.4159 0.3007 -0.8582
vn -0.4553 -0.2140 -0.8642
vn -0.3733 -0.6720 -0.6395
vn -0.1913 -0.9508 -0.2436
vn 0.0422 -0.9750 0.2182
vn 0.2647 -0.7370 0.6219
vn 0.4159 -0.3004 0.8583
vn 0.4552 0.2170 0.8635
vn 0.3720 0.6757 0.6365
vn 0.1890 0.9525 0.2388
vn -0.2857 0.7487 -0.5981
vn -0.0461 0.9783 -0.2018
vn -0.4489 0.3200 -0.8343
vn -0.4926 -0.1934 -0.8485
vn -0.4053 -0.6554 -0.6372
vn -0.2101 -0.9435 -0.2561
vn 0.0416 -0.9801 0.1942
vn 0.2827 -0.7536 0.5934
vn 0.4480 -0.3237 0.8333
vn 0.4924 0.1940 0.8484
vn 0.4039 0.6592 0.6343
vn 0.2065 0.9461 0.2493
vn -0.3096 0.7571 -0.5753
vn -0.0381 0.9799 -0.1956
vn -0.4978 0.3334 -0.8006
vn -0.5538 -0.1776 -0.8134
vn -0.4634 -0.6414 -0.6113
vn -0.2503 -0.9361 -0.2472
vn 0.0301 -0.9825 0.1838
vn 0.3033 -0.7658 0.5670
vn 0.4955 -0.3418 0.7985
vn 0.5537 0.1757 0.8140
vn 0.4615 0.6457 0.6083
vn 0.2444 0.9400 0.2380
vn -0.3393 0.7621 -0.5513
vn -0.0205 0.9784 -0.2057
vn -0.5663 0.3445 -0.7487
vn -0.6434 -0.1622 -0.7481
vn -0.5517 -0.6257 -0.5514
vn -0.3149 -0.9257 -0.2096
vn 0.0061 -0.9819 0.1890
vn 0.3272 -0.7759 0.5394
vn 0.5613 -0.3590 0.7457
vn 0.6431 0.1572 0.7495
vn 0.5490 0.6309 0.5481
vn 0.3052 0.9316 0.1973
vn -0.3765 0.7669 -0.5197
vn 0.0060 0.9715 -0.2370
vn -0.6565 0.3608 -0.6624
vn -0.7634 -0.1371 -0.6312
vn -0.6720 -0.5983 -0.4364
vn -0.4058 -0.9049 -0.1279
vn -0.0316 -0.9759 0.2160
vn 0.3539 -0.7871 0.5052
vn 0.6463 -0.3833 0.6598
vn 0.7625 0.1281 0.6342
vn 0.6681 0.6051 0.4329
vn 0.3896 0.9141 0.1124
vn -0.4178 0.7770 -0.4708
vn 0.0355 0.9546 -0.2955
vn -0.7563 0.3967 -0.5201
vn -0.8968 -0.0834 -0.4345
vn -0.8068 -0.5408 -0.2377
vn -0.5095 -0.8602 0.0206
vn -0.0776 -0.9582 0.2752
vn 0.3792 -0.8030 0.4597
vn 0.7382 -0.4277 0.5217
vn 0.8954 0.0699 0.4396
vn 0.8019 0.5498 0.2337
vn 0.4841 0.8742 -0.0372
vn -0.4384 0.7838 -0.4398
vn 0.0493 0.9422 -0.3314
vn -0.8005 0.4190 -0.4286
vn -0.9503 -0.0458 -0.3077
vn -0.8619 -0.4947 -0.1114
vn -0.5567 -0.8228 0.1141
vn -0.1013 -0.9438 0.3145
vn 0.3902 -0.8120 0.4339
vn 0.7779 -0.4539 0.4344
vn 0.9489 0.0301 0.3142
vn 0.8566 0.5046 0.1072
vn 0.5266 0.8401 -0.1300
usemtl Material.001
s 1
f 1//1 13//2 24//3 12//4
f 2//5 14//6 13//2 1//1
f 3//7 15//8 14//6 2//5
f 4//9 16//10 15//8 3//7
f 5//11 17//12 16//10 4//9
f 6//13 18//14 17//12 5//11
f 7//15 19//16 18//14 6//13
f 8//17 20//18 19//16 7//15
f 9//19 21//20 20//18 8//17
f 10//21 22//22 21//20 9//19
f 11//23 23//24 22//22 10//21
f 12//4 24//3 23//24 11//23
f 13//2 25//25 36//26 24//3
f 14//6 26//27 25//25 13//2
f 15//8 27//28 26//27 14//6
f 16//10 28//29 27//28 15//8
f 17//12 29//30 28//29 16//10
f 18//14 30//31 29//30 17//12
f 19//16 31//32 30//31 18//14
f 20//18 32//33 31//32 19//16
f 21//20 33//34 32//33 20//18
f 22//22 34//35 33//34 21//20
f 23//24 35//36 34//35 22//22
f 24//3 36//26 35//36 23//24
f 25//25 37//37 48//38 36//26
f 26//27 38//39 37//37 25//25
f 27//28 39//40 38//39 26//27
f 28//29 40//41 39//40 27//28
f 29//30 41//42 40//41 28//29
f 30//31 42//43 41//42 29//30
f 31//32 43//44 42//43 30//31
f 32//33 44//45 43//44 31//32
f 33//34 45//46 44//45 32//33
f 34//35 46//47 45//46 33//34
f 35//36 47//48 46//47 34//35
f 36//26 48//38 47//48 35//36
f 37//37 49//49 60//50 48//38
f 38//39 50//51 49//49 37//37
f 39//40 51//52 50//51 38//39
f 40//41 52//53 51//52 39//40
f 41//42 53//54 52//53 40//41
f 42//43 54//55 53//54 41//42
f 43//44 55//56 54//55 42//43
f 44//45 56//57 55//56 43//44
f 45//46 57//58 56//57 44//45
f 46//47 58//59 57//58 45//46
f 47//48 59//60 58//59 46//47
f 48//38 60//50 59//60 47//48
f 49//49 61//61 72//62 60//50
f 50//51 62//63 61//61 49//49
f 51//52 63//64 62//63 50//51
f 52//53 64//65 63//64 51//52
f 53//54 65//66 64//65 52//53
f 54//55 66//67 65//66 53//54
f 55//56 67//68 66//67 54//55
f 56//57 68//69 67//68 55//56
f 57//58 69//70 68//69 56//57
f 58//59 70//71 69//70 57//58
f 59//60 71//72 70//71 58//59
f 60//50 72//62 71//72 59//60
f 61//61 73//73 84//74 72//62
f 62//63 74//75 73//73 61//61
f 63//64 75//76 74//75 62//63
f 64//65 76//77 75//76 63//64
f 65//66 77//78 76//77 64//65
f 66//67 78//79 77//78 65//66
f 67//68 79//80 78//79 66//67
f 68//69 80//81 79//80 67//68
f 69//70 81//82 80//81 68//69
f 70//71 82//83 81//82 69//70
f 71//72 83//84 82//83 70//71
f 72//62 84//74 83//84 71//72
f 73//73 85//85 96//86 84//74
f 74//75 86//87 85//85 73//73
f 75//76 87//88 86//87 74//75
f 76//77 88//89 87//88 75//76
f 77//78 89//90 88//89 76//77
f 78//79 90//91 89//90 77//78
f 79//80 91//92 90//91 78//79
f 80//81 92//93 91//92 79//80
f 81//82 93//94 92//93 80//81
f 82//83 94//95 93//94 81//82
f 83//84 95//96 94//95 82//83
f 84//74 96//86 95//96 83//84
f 85//85 97//97 108//98 96//86
f 86//87 98//99 97//97 85//85
f 87//88 99//100 98//99 86//87
f 88//89 100//101 99//100 87//88
f 89//90 101//102 100//101 88//89
f 90//91 102//103 101//102 89//90
f 91//92 103//104 102//103 90//91
f 92//93 104//105 103//104 91//92
f 93//94 105//106 104//105 92//93
f 94//95 106//107 105//106 93//94
f 95//96 107//108 106//107 94//95
f 96//86 108//98 107//108 95//96
f 97//97 109//109 120//110 108//98
f 98//99 110//111 109//109 97//97
f 99//100 111//112 110//111 98//99
f 100//101 112//113 111//112 99//100
f 101//102 113//114 112//113 100//101
f 102//103 114//115 113//114 101//102
f 103//104 115//116 114//115 102//103
f 104//105 116//117 115//116 103//104
f 105//106 117//118 116//117 104//105
f 106//107 118//119 117//118 105//106
f 107//108 119//120 118//119 106//107
f 108//98 120//110 119//120 107//108
f 109//109 121//121 132//122 120//110
f 110//111 122//123 121//121 109//109
f 111//112 123//124 122//123 110//111
f 112//113 124//125 123//124 111//112
f 113//114 125//126 124//125 112//113
f 114//115 126//127 125//126 113//114
f 115//116 127//128 126//127 114//115
f 116//117 128//129 127//128 115//116
f 117//118 129//130 128//129 116//117
f 118//119 130//131 129//130 117//118
f 119//120 131//132 130//131 118//119
f 120//110 132//122 131//132 119//120
f 121//121 133//133 144//134 132//122
f 122//123 134//135 133//133 121//121
f 123//124 135//136 134//135 122//123
f 124//125 136//137 135//136 123//124
f 125//126 137//138 136//137 124//125
f 126//127 138//139 137//138 125//126
f 127//128 139//140 138//139 126//127
f 128//129 140//141 139//140 127//128
f 129//130 141//142 140//141 128//129
f 130//131 142//143 141//142 129//130
f 131//132 143//144 142//143 130//131
f 132//122 144//134 143//144 131//132
f 133//133 145//145 156//146 144//134
f 134//135 146//147 145//145 133//133
f 135//136 147//148 146//147 134//135
f 136//137 148//149 147//148 135//136
f 137//138 149//150 148//149 136//137
f 138//139 150//151 149//150 137//138
f 139//140 151//152 150//151 138//139
f 140//141 152//153 151//152 139//140
f 141//142 153//154 152//153 140//141
f 142//143 154//155 153//154 141//142
f 143//144 155//156 154//155 142//143
f 144//134 156//146 155//156 143//144
o Cone
v -2.513268 2.688686 1.837353
v -2.511633 2.700971 1.832986
v -2.507487 2.712745 1.828879
v -2.500989 2.723553 1.825188
v -2.492389 2.732982 1.822056
v -2.482017 2.740669 1.819603
v -2.470273 2.746317 1.817924
v -2.457606 2.749712 1.817082
v -2.444504 2.750720 1.817111
v -2.431471 2.749305 1.818009
v -2.419007 2.745520 1.819741
v -2.407592 2.739511 1.822242
v -2.397663 2.731509 1.825414
v -2.389603 2.721822 1.829137
v -2.383722 2.710820 1.833266
v -2.380244 2.698929 1.837644
v -2.379305 2.686603 1.842102
v -2.380940 2.674318 1.846468
v -2.385086 2.662544 1.850576
v -2.391584 2.651736 1.854267
v -2.400184 2.642307 1.857398
v -2.410556 2.634620 1.859851
v -2.422301 2.628971 1.861531
v -2.450052 2.732969 1.965840
v -2.434967 2.625577 1.862372
v -2.448069 2.624568 1.862344
v -2.461102 2.625984 1.861446
v -2.473566 2.629768 1.859713
v -2.484982 2.635777 1.857213
v -2.494910 2.643780 1.854040
v -2.502970 2.653467 1.850318
v -2.508852 2.664469 1.846188
v -2.512329 2.676360 1.841811
vt 0.250000 0.490000
vt 0.250000 0.250000
vt 0.296822 0.485388
vt 0.341844 0.471731
vt 0.383337 0.449553
vt 0.419706 0.419706
vt 0.449553 0.383337
vt 0.471731 0.341844
vt 0.485388 0.296822
vt 0.490000 0.250000
vt 0.485388 0.203178
vt 0.471731 0.158156
vt 0.449553 0.116663
vt 0.419706 0.080294
vt 0.383337 0.050447
vt 0.341844 0.028269
vt 0.296822 0.014612
vt 0.250000 0.010000
vt 0.203178 0.014612
vt 0.158156 0.028269
vt 0.116663 0.050447
vt 0.080294 0.080294
vt 0.050447 0.116663
vt 0.028269 0.158156
vt 0.014611 0.203179
vt 0.010000 0.250000
vt 0.014612 0.296822
vt 0.028269 0.341844
vt 0.050447 0.383337
vt 0.080295 0.419706
vt 0.116663 0.449553
vt 0.158156 0.471731
vt 0.203179 0.485389
vt 0.750000 0.490000
vt 0.796822 0.485388
vt 0.841844 0.471731
vt 0.883337 0.449553
vt 0.919706 0.419706
vt 0.949553 0.383337
vt 0.971731 0.341844
vt 0.985388 0.296822
vt 0.990000 0.250000
vt 0.985388 0.203178
vt 0.971731 0.158156
vt 0.949553 0.116663
vt 0.919706 0.080294
vt 0.883337 0.050447
vt 0.841844 0.028269
vt 0.796822 0.014612
vt 0.750000 0.010000
vt 0.703178 0.014612
vt 0.658156 0.028269
vt 0.616663 0.050447
vt 0.580294 0.080294
vt 0.550447 0.116663
vt 0.528269 0.158156
vt 0.514611 0.203179
vt 0.510000 0.250000
vt 0.514612 0.296822
vt 0.528269 0.341844
vt 0.550447 0.383337
vt 0.580295 0.419706
vt 0.616663 0.449553
vt 0.658156 0.471731
vt 0.703179 0.485389
vn -0.9005 0.2470 0.3579
vn -0.8617 0.4085 0.3010
vn -0.7903 0.5600 0.2487
vn -0.6890 0.6958 0.2029
vn -0.5616 0.8107 0.1654
vn -0.4133 0.9001 0.1377
vn -0.2494 0.9608 0.1208
vn -0.0765 0.9904 0.1153
vn 0.0989 0.9876 0.1216
vn 0.2700 0.9528 0.1392
vn 0.4302 0.8870 0.1676
vn 0.5734 0.7930 0.2057
vn 0.6942 0.6743 0.2520
vn 0.7877 0.5355 0.3047
vn 0.8505 0.3819 0.3617
vn 0.8801 0.2194 0.4210
vn 0.8755 0.0542 0.4802
vn 0.8367 -0.1072 0.5371
vn 0.7652 -0.2588 0.5894
vn 0.6639 -0.3946 0.6352
vn 0.5366 -0.5094 0.6727
vn 0.3882 -0.5989 0.7004
vn 0.2244 -0.6596 0.7173
vn 0.0515 -0.6892 0.7228
vn -0.1239 -0.6864 0.7166
vn -0.2950 -0.6515 0.6989
vn -0.4552 -0.5858 0.6705
vn -0.5985 -0.4918 0.6325
vn -0.7192 -0.3730 0.5862
vn -0.8127 -0.2343 0.5335
vn -0.8755 -0.0806 0.4764
vn -0.9052 0.0819 0.4171
vn 0.0281 -0.3381 -0.9407
usemtl None
s off
f 157/1/157 180/2/157 158/3/157
f 158/3/158 180/2/158 159/4/158
f 159/4/159 180/2/159 160/5/159
f 160/5/160 180/2/160 161/6/160
f 161/6/161 180/2/161 162/7/161
f 162/7/162 180/2/162 163/8/162
f 163/8/163 180/2/163 164/9/163
f 164/9/164 180/2/164 165/10/164
f 165/10/165 180/2/165 166/11/165
f 166/11/166 180/2/166 167/12/166
f 167/12/167 180/2/167 168/13/167
f 168/13/168 180/2/168 169/14/168
f 169/14/169 180/2/169 170/15/169
f 170/15/170 180/2/170 171/16/170
f 171/16/171 180/2/171 172/17/171
f 172/17/172 180/2/172 173/18/172
f 173/18/173 180/2/173 174/19/173
f 174/19/174 180/2/174 175/20/174
f 175/20/175 180/2/175 176/21/175
f 176/21/176 180/2/176 177/22/176
f 177/22/177 180/2/177 178/23/177
f 178/23/178 180/2/178 179/24/178
f 179/24/179 180/2/179 181/25/179
f 181/25/180 180/2/180 182/26/180
f 182/26/181 180/2/181 183/27/181
f 183/27/182 180/2/182 184/28/182
f 184/28/183 180/2/183 185/29/183
f 185/29/184 180/2/184 186/30/184
f 186/30/185 180/2/185 187/31/185
f 187/31/186 180/2/186 188/32/186
f 188/32/187 180/2/187 189/33/187
f 189/33/188 180/2/188 157/1/188
f 157/34/189 158/35/189 159/36/189 160/37/189 161/38/189 162/39/189 163/40/189 164/41/189 165/42/189 166/43/189 167/44/189 168/45/189 169/46/189 170/47/189 171/48/189 172/49/189 173/50/189 174/51/189 175/52/189 176/53/189 177/54/189 178/55/189 179/56/189 181/57/189 182/58/189 183/59/189 184/60/189 185/61/189 186/62/189 187/63/189 188/64/189 189/65/189
